<?xml version="1.0" encoding="UTF-8"?>
<svg width="32px" height="28px" viewBox="0 0 32 28" version="1.1" xmlns="http://www.w3.org/2000/svg" xmlns:xlink="http://www.w3.org/1999/xlink">
    <!-- Generator: Sketch 45.1 (43504) - http://www.bohemiancoding.com/sketch -->
    <title>Untitled 2</title>
    <desc>Created with Sketch.</desc>
    <defs></defs>
    <g id="Page-1" stroke="none" stroke-width="1" fill="none" fill-rule="evenodd">
        <g id="high-blog" fill-rule="nonzero" fill="#3F5D75">
            <path d="M28.22,0.81 L8.67,0.81 C6.781,0.81 5.25,2.341 5.25,4.23 L5.25,23.29 C5.25,23.842 4.802,24.29 4.25,24.29 C3.698,24.29 3.25,23.842 3.25,23.29 L3.25,23.29 L3.25,9.12 C3.185,8.362 2.554,7.771 1.785,7.771 C1.016,7.771 0.385,8.362 0.32,9.114 L0.32,9.119 L0.32,23.289 C0.328,25.36 1.948,27.05 3.989,27.169 L4,27.169 C4.1,27.169 4.19,27.169 4.3,27.169 L26.3,27.169 C29.271,27.169 31.68,24.76 31.68,21.789 L31.68,21.789 L31.68,4.229 C31.68,4.229 31.68,4.229 31.68,4.229 C31.68,2.34 30.149,0.809 28.26,0.809 C28.246,0.809 28.232,0.809 28.218,0.809 L28.22,0.809 L28.22,0.81 Z M28.71,21.81 C28.704,23.155 27.615,24.244 26.271,24.25 L8.18,24.25 L8.18,4.25 C8.18,3.979 8.399,3.76 8.67,3.76 L8.67,3.76 L28.22,3.76 C28.491,3.76 28.71,3.979 28.71,4.25 L28.71,4.25 L28.71,21.81 Z" id="Shape"></path>
            <path d="M11.61,5.7 L25.29,5.7 C26.102,5.7 26.76,6.358 26.76,7.17 L26.76,11.07 C26.76,11.882 26.102,12.54 25.29,12.54 L11.61,12.54 C10.798,12.54 10.14,11.882 10.14,11.07 L10.14,7.17 C10.14,6.358 10.798,5.7 11.61,5.7 Z" id="Shape"></path>
            <path d="M25.28,14.49 L11.6,14.49 C10.842,14.555 10.251,15.186 10.251,15.955 C10.251,16.724 10.842,17.355 11.594,17.42 L11.599,17.42 L25.279,17.42 C25.315,17.423 25.357,17.425 25.4,17.425 C26.212,17.425 26.87,16.767 26.87,15.955 C26.87,15.143 26.212,14.485 25.4,14.485 C25.357,14.485 25.315,14.487 25.273,14.49 L25.278,14.49 L25.28,14.49 Z" id="Shape"></path>
            <path d="M25.28,19.38 L11.6,19.38 C11.564,19.377 11.521,19.375 11.479,19.375 C10.667,19.375 10.009,20.033 10.009,20.845 C10.009,21.657 10.667,22.315 11.479,22.315 C11.522,22.315 11.564,22.313 11.606,22.31 L11.601,22.31 L25.281,22.31 C25.317,22.313 25.359,22.315 25.402,22.315 C26.214,22.315 26.872,21.657 26.872,20.845 C26.872,20.033 26.214,19.375 25.402,19.375 C25.359,19.375 25.317,19.377 25.275,19.38 L25.28,19.38 L25.28,19.38 Z" id="Shape"></path>
        </g>
    </g>
</svg>
