<svg width="31" height="32" viewBox="0 0 31 32" fill="none" xmlns="http://www.w3.org/2000/svg">
  <path d="M26.4484 11.08H25.2198V9.8515C25.2198 4.41116 20.8087 0 15.3683 0C9.928 0 5.51684 4.41116 5.51684 9.8515V11.08H4.31148C1.93089 11.08 0 13.0098 0 15.3915V27.6885C0 30.0703 1.93089 32 4.31148 32H26.4484C28.8301 32 30.7599 30.0691 30.7599 27.6885V15.3915C30.7599 13.0098 28.829 11.08 26.4484 11.08V11.08ZM19.0656 19.7146C19.0656 21.0718 17.9657 22.1717 16.6085 22.1717V25.8573C16.6085 26.5353 16.058 27.0858 15.3799 27.0858C14.7019 27.0858 14.1514 26.5353 14.1514 25.8573V22.1601C12.7907 22.1601 11.6885 21.0579 11.6885 19.6972C11.6885 18.3365 12.7907 17.2343 14.1514 17.2343H16.6085C17.9633 17.2598 19.0528 18.3586 19.0656 19.7134V19.7146ZM9.22564 9.8515C9.22564 6.45215 11.9806 3.69721 15.3799 3.69721C18.7793 3.69721 21.5342 6.45215 21.5342 9.8515V11.08H9.22564V9.8515Z" fill="#425B76"/>
</svg>
